<svg height="490pt" viewBox="-53 0 490 490.66667" width="490pt" xmlns="http://www.w3.org/2000/svg"><path d="m352.332031 64c-17.664062 0-32 14.335938-32 32v-42.667969c0-17.664062-14.335937-32-32-32-17.664062 0-32 14.335938-32 32v-21.332031c0-17.664062-14.335937-32-32-32-17.664062 0-32 14.335938-32 32v21.332031c0-17.664062-14.335937-32-32-32-17.664062 0-32 14.335938-32 32v245.335938l-79.292969-48.640625h-.066406c-4.691406-2.988282-10.453125-4.695313-16.640625-4.695313-17.707031 0-32 14.292969-32 32 0 6.1875 1.707031 12.160157 4.90625 17.066407l-.039062-.082032 98.046875 156.351563c15.617187 24.894531 42.921875 40 72.296875 40h102.125c58.898437 0 106.664062-47.765625 106.664062-106.667969v-288c0-17.664062-14.335937-32-32-32zm0 0" fill="#ffcc80"/><g fill="#ffa726"><path d="m331 72.320312v205.011719c-5.972656 0-10.667969-4.691406-10.667969-10.664062v-170.667969c0-9.386719 4.054688-17.921875 10.667969-23.679688zm0 0"/><path d="m267 29.652344v237.015625c-5.972656 0-10.667969-4.695313-10.667969-10.667969v-202.667969c0-9.386719 4.054688-17.917969 10.667969-23.679687zm0 0"/><path d="m203 8.320312v247.679688c-5.972656 0-10.667969-4.691406-10.667969-10.667969v-213.332031c0-9.386719 4.054688-17.921875 10.667969-23.679688zm0 0"/></g></svg>