<?xml version="1.0" encoding="iso-8859-1"?>
<!-- Generator: Adobe Illustrator 19.0.0, SVG Export Plug-In . SVG Version: 6.00 Build 0)  -->
<svg version="1.1" id="Layer_1" xmlns="http://www.w3.org/2000/svg" xmlns:xlink="http://www.w3.org/1999/xlink" x="0px" y="0px"
	 viewBox="0 0 512 512" style="enable-background:new 0 0 512 512;" xml:space="preserve">
<path style="fill:#FED9A8;" d="M361.969,52.495h-2.006l-0.022-19.838C359.921,14.596,345.258-0.027,327.198,0l0,0
	c-18.052,0.027-32.666,14.679-32.646,32.732l0.022,19.766h-0.022l-0.02-17.769c-0.02-18.062-14.682-32.685-32.743-32.658l0,0
	c-17.253,0.026-31.355,13.414-32.553,30.357c-1.03-17.151-15.272-30.733-32.678-30.706l0,0
	c-18.052,0.027-32.666,14.679-32.646,32.732l0.008,7.28c-2.12-13.64-13.925-24.071-28.157-24.049l0,0
	c-15.712,0.023-28.43,12.776-28.413,28.487l0.055,48.62c0.003,3.399,0.606,6.659,1.704,9.68l0.048,94.935
	c0.089,14.765,4.329,29.187,12.208,41.529l40.31,57.472l-1.559,31.232l175.998,0.942l-0.437-42.209l0,0l0,0l61.409-113.233
	c4.733-8.727,7.243-18.542,7.296-28.53l0.267-50.017C404.775,72.275,385.632,52.495,361.969,52.495z"/>
<g>
	<path style="fill:#F4C08E;" d="M294.551,52.361l-0.02-17.631c-0.02-18.062-14.682-32.685-32.743-32.658l0,0
		c-4.783,0.007-9.319,1.049-13.412,2.9c11.154,5.195,18.896,16.493,18.911,29.611l0.028,24.64
		c4.861-4.275,11.169-6.862,18.068-6.862L294.551,52.361z"/>
	<path style="fill:#F4C08E;" d="M359.941,32.658C359.921,14.596,345.258-0.027,327.198,0l0,0c-4.717,0.007-9.195,1.02-13.243,2.824
		c11.247,5.159,19.069,16.503,19.084,29.689l0.022,19.846l26.902-0.001L359.941,32.658z"/>
</g>
<path style="fill:#FB0125;" d="M380.054,342.73c0.036-6.579-5.27-11.941-11.849-11.977l-238.054-1.274
	c-6.579-0.035-11.941,5.27-11.977,11.849l-0.149,27.725c-0.035,6.579,5.27,11.941,11.849,11.977l162.013,0.867l30.996,0.166
	l45.045,0.24c6.579,0.035,11.941-5.27,11.977-11.849L380.054,342.73z"/>
<path style="fill:#CC111E;" d="M368.205,330.754l-26.902-0.144c6.579,0.035,11.884,5.397,11.849,11.977l-0.149,27.725
	c-0.035,6.579-5.397,11.884-11.977,11.849l26.902,0.144c6.579,0.035,11.941-5.27,11.977-11.849l0.149-27.725
	C380.09,336.151,374.784,330.789,368.205,330.754z"/>
<path style="fill:#FB0125;" d="M137.296,381.07l-9.895,112.181c-0.832,9.435,6.575,17.568,16.047,17.619L354.747,512
	c9.312,0.05,16.748-7.745,16.261-17.045l-5.916-112.666L137.296,381.07z"/>
<polygon style="fill:#BA041F;" points="365.091,382.289 137.296,381.07 135.719,398.957 291.513,399.79 322.509,399.956 
	366.03,400.188 "/>
<path style="fill:#CC111E;" d="M365.091,382.289l-26.902-0.144l6.815,129.803l9.742,0.053c9.312,0.05,16.748-7.745,16.261-17.045
	L365.091,382.289z"/>
<polygon style="fill:#9A0314;" points="338.189,382.145 339.128,400.045 366.03,400.188 365.091,382.289 "/>
<g>
	<path style="fill:#F4C08E;" d="M164.258,46.108c-0.018-15.719-12.779-28.446-28.497-28.423l0,0
		c-4.73,0.007-9.185,1.175-13.106,3.223c8.933,4.791,15.014,14.212,15.026,25.058l0.055,48.62
		c0.012,10.981-6.201,20.51-15.305,25.264c4.012,2.152,8.6,3.373,13.472,3.365l0,0c15.712-0.023,28.43-12.775,28.413-28.487
		L164.258,46.108z"/>
	<path style="fill:#F4C08E;" d="M229.299,34.538c-0.02-18.062-14.682-32.685-32.743-32.658l0,0
		c-5.046,0.008-9.822,1.16-14.086,3.207c11.482,5.062,19.509,16.53,19.524,29.887l0.062,54.061
		c0.015,13.006-7.568,24.246-18.559,29.524c4.045,1.783,8.515,2.777,13.219,2.771l0,0c18.052-0.027,32.666-14.679,32.646-32.732
		L229.299,34.538z"/>
	<path style="fill:#F4C08E;" d="M293.271,100.256l-27.16,0.02c-2.593,0.002-5.1-0.369-7.481-1.049
		c3.407,11.829,14.058,20.457,26.672,20.448l27.16-0.02c1.479-0.001,2.925,0.143,4.33,0.405L293.271,100.256z"/>
	<path style="fill:#F4C08E;" d="M380.765,56.971c3.026,6.062,4.727,12.935,4.688,20.222l-0.267,50.017
		c-0.023,4.35-0.54,8.66-1.475,12.868l-65.783,126.23l-8.726,21.922l0.437,42.209l26.472,0.142l-0.437-42.209l0,0l0,0
		l61.409-113.233c4.733-8.727,7.243-18.542,7.296-28.53l0.267-50.017C404.738,79.209,394.98,64.149,380.765,56.971z"/>
	<path style="fill:#F4C08E;" d="M315.164,174.497l21.167-29.625l0,0c0.073-13.661-10.687-24.771-23.981-24.761l-27.16,0.02
		c-3.134,0.002-6.144-0.536-8.955-1.517c-4.343,2.144-9.23,3.357-14.402,3.365l0,0c-15.647,0.023-28.734-10.951-31.969-25.627
		l-1.47-0.008c-3.353,14.468-16.302,25.263-31.792,25.285c-15.647,0.023-28.734-10.951-31.969-25.627l-0.452-0.002
		c-0.415,15.333-12.955,27.649-28.393,27.671l0,0c-0.119,0-0.234-0.007-0.352-0.008l-0.409,76.511
		c-0.152,28.516,22.84,51.755,51.355,51.908l81.437,0.436c19.379,0.104,35.464-15.385,35.598-34.764
		C303.519,202.615,307.447,187.573,315.164,174.497z"/>
</g>
<path style="fill:#F7AD6B;" d="M333.642,138.329c0.129-4.19-1.356-8.358-4.415-11.465c-0.031-0.032-0.064-0.064-0.095-0.096
	c-4.446-4.466-10.309-6.94-16.524-6.973c-0.049,0-0.097,0-0.145,0l-27.16,0.021c-0.056,0-0.113,0-0.168,0
	c-3.066-0.016-6.015-0.55-8.774-1.509c-4.513,2.219-9.362,3.349-14.415,3.357l-0.229-0.001
	c-16.797-0.092-30.679-12.931-32.458-29.279c-1.936,16.248-15.781,28.904-32.544,28.93l-0.23-0.001
	c-15.837-0.084-29.081-11.505-32.034-26.512c-0.021,15.728-12.813,28.53-28.551,28.555h-0.2
	c-12.135-0.065-22.521-7.773-26.594-18.527l0.015,28.417c7.535,5.256,16.666,8.373,26.504,8.425l0.303,0.001
	c11.47-0.018,22.429-4.266,30.891-11.708c8.566,6.17,18.905,9.609,29.585,9.666l0.338,0.001c11.988-0.018,23.308-4.15,32.338-11.594
	c9.043,7.621,20.439,11.876,32.554,11.942l0.339,0.001c5.36-0.009,10.623-0.847,15.689-2.497c2.447,0.417,4.916,0.634,7.375,0.648
	L333.642,138.329z"/>
<g>
</g>
<g>
</g>
<g>
</g>
<g>
</g>
<g>
</g>
<g>
</g>
<g>
</g>
<g>
</g>
<g>
</g>
<g>
</g>
<g>
</g>
<g>
</g>
<g>
</g>
<g>
</g>
<g>
</g>
</svg>
